<svg aria-hidden="true" style="position: absolute; width: 0; height: 0; overflow: hidden;" version="1.1" xmlns="http://www.w3.org/2000/svg" xmlns:xlink="http://www.w3.org/1999/xlink">
<defs>

<symbol id="icon-youtobe" viewBox="0 0 44 32">
<path fill="#d6d8da" style="fill: var(--color1, #d6d8da)" d="M43.866 7.138c0 0-0.433-3.054-1.765-4.396-1.688-1.765-3.574-1.774-4.439-1.878-6.196-0.45-15.499-0.45-15.499-0.45h-0.017c0 0-9.303 0-15.499 0.45-0.865 0.104-2.751 0.112-4.439 1.878-1.333 1.342-1.757 4.396-1.757 4.396s-0.442 3.583-0.442 7.174v3.358c0 3.582 0.442 7.174 0.442 7.174s0.433 3.054 1.757 4.396c1.688 1.765 3.903 1.704 4.889 1.895 3.549 0.338 15.066 0.442 15.066 0.442s9.312-0.017 15.508-0.458c0.865-0.104 2.753-0.112 4.439-1.878 1.332-1.342 1.765-4.396 1.765-4.396s0.442-3.582 0.442-7.174v-3.358c-0.008-3.583-0.45-7.175-0.45-7.175zM17.576 21.746v-12.453l11.969 6.249-11.969 6.205z"></path>
</symbol>
<symbol id="icon-vector-rigth" viewBox="0 0 32 32">
<path stroke-linejoin="miter" stroke-linecap="butt" stroke-miterlimit="4" stroke-width="0.8889" d="M31.556 16c0 8.591-6.964 15.556-15.556 15.556s-15.556-6.964-15.556-15.556c0-8.591 6.964-15.556 15.556-15.556s15.556 6.964 15.556 15.556z"></path>
<path d="M24.444 16l0.314-0.314 0.314 0.314-0.314 0.314-0.314-0.314zM8 16.444c-0.245 0-0.444-0.199-0.444-0.444s0.199-0.444 0.444-0.444v0.889zM19.425 10.352l5.333 5.333-0.629 0.629-5.333-5.333 0.629-0.629zM24.759 16.314l-5.333 5.333-0.629-0.629 5.333-5.333 0.629 0.629zM24.444 16.444h-16.444v-0.889h16.444v0.889z"></path>
</symbol> 
<symbol id="icon-news" viewBox="0 0 103 32">
<path fill="#caced1" style="fill: var(--color1, #caced1)" d="M100.571 16l0.804-0.812 0.819 0.812-0.819 0.812-0.804-0.812zM2.286 17.143c-0.631 0-1.143-0.512-1.143-1.143s0.512-1.143 1.143-1.143v2.286zM87.533 1.474l13.843 13.714-1.609 1.624-13.843-13.714 1.609-1.624zM101.376 16.812l-13.843 13.714-1.609-1.624 13.843-13.714 1.609 1.624zM100.571 17.143h-98.286v-2.286h98.286v2.286z"></path>
</symbol>
<symbol id="icon-arrow" viewBox="0 0 20 20">
<path d="M16.172 9l-6.071-6.071 1.414-1.414 8.485 8.485-8.485 8.485-1.414-1.414 6.071-6.071h-16.172v-2z"></path>
</symbol>
<symbol id="icon-facebook" viewBox="0 0 20 20">
  <path d="M11.667 7.75v2.417h2.167c0.167 0 0.25 0.167 0.25 0.333l-0.333 1.583c0 0.083-0.167 0.167-0.25 0.167h-1.833v6.083h-2.5v-6h-1.417c-0.167 0-0.25-0.083-0.25-0.25v-1.583c0-0.167 0.083-0.25 0.25-0.25h1.417v-2.75c0-1.417 1.083-2.5 2.5-2.5h2.25c0.167 0 0.25 0.083 0.25 0.25v2c0 0.167-0.083 0.25-0.25 0.25h-2c-0.167 0-0.25 0.083-0.25 0.25z" fill="currentColor"></path>
  <path d="M12.5 18.333h-5c-4.167 0-5.833-1.667-5.833-5.833v-5c0-4.167 1.667-5.833 5.833-5.833h5c4.167 0 5.833 1.667 5.833 5.833v5c0 4.167-1.667 5.833-5.833 5.833z" fill="currentColor"></path>
</symbol>
<symbol id="icon-instagram" viewBox="0 0 20 20">
<path d="M5.8 0h8.4c3.2 0 5.8 2.6 5.8 5.8v8.4c0 1.538-0.611 3.013-1.699 4.101s-2.563 1.699-4.101 1.699h-8.4c-3.2 0-5.8-2.6-5.8-5.8v-8.4c0-1.538 0.611-3.014 1.699-4.101s2.563-1.699 4.101-1.699zM5.6 2c-0.955 0-1.87 0.379-2.546 1.054s-1.054 1.591-1.054 2.546v8.8c0 1.99 1.61 3.6 3.6 3.6h8.8c0.955 0 1.871-0.379 2.546-1.054s1.054-1.591 1.054-2.546v-8.8c0-1.99-1.61-3.6-3.6-3.6h-8.8zM15.25 3.5c0.332 0 0.649 0.132 0.884 0.366s0.366 0.552 0.366 0.884c0 0.332-0.132 0.649-0.366 0.884s-0.552 0.366-0.884 0.366c-0.332 0-0.649-0.132-0.884-0.366s-0.366-0.552-0.366-0.884c0-0.332 0.132-0.649 0.366-0.884s0.552-0.366 0.884-0.366zM10 5c1.326 0 2.598 0.527 3.536 1.464s1.464 2.209 1.464 3.536c0 1.326-0.527 2.598-1.464 3.536s-2.209 1.464-3.536 1.464c-1.326 0-2.598-0.527-3.536-1.464s-1.464-2.209-1.464-3.536c0-1.326 0.527-2.598 1.464-3.536s2.209-1.464 3.536-1.464zM10 7c-0.796 0-1.559 0.316-2.121 0.879s-0.879 1.326-0.879 2.121c0 0.796 0.316 1.559 0.879 2.121s1.326 0.879 2.121 0.879c0.796 0 1.559-0.316 2.121-0.879s0.879-1.326 0.879-2.121c0-0.796-0.316-1.559-0.879-2.121s-1.326-0.879-2.121-0.879z" fill="currentColor"></path>
</symbol>
</defs>
</svg>
