<svg aria-hidden="true" style="position: absolute; width: 0; height: 0; overflow: hidden;" version="1.1" xmlns="http://www.w3.org/2000/svg" xmlns:xlink="http://www.w3.org/1999/xlink">
<defs>
<symbol id="icon-youtobe" viewBox="0 0 36 26" xmlns="http://www.w3.org/2000/svg">
  <path d="M35.6412 5.79991C35.6412 5.79991 35.2891 3.31816 34.2068 2.22804C32.8355 0.793664 31.3032 0.786914 30.6001 0.702539C25.5657 0.336914 18.0068 0.336914 18.0068 0.336914H17.9933C17.9933 0.336914 10.4345 0.336914 5.40009 0.702539C4.69696 0.786914 3.16471 0.793664 1.79334 2.22804C0.709961 3.31816 0.365711 5.79991 0.365711 5.79991C0.365711 5.79991 0.00683594 8.71142 0.00683594 11.6285V14.3567C0.00683594 17.267 0.365711 20.1853 0.365711 20.1853C0.365711 20.1853 0.717836 22.667 1.79334 23.7572C3.16471 25.1915 4.96471 25.142 5.76571 25.2973C8.64909 25.5718 18.0068 25.6562 18.0068 25.6562C18.0068 25.6562 25.5725 25.6427 30.6068 25.2838C31.31 25.1994 32.8433 25.1927 34.2136 23.7583C35.2958 22.6682 35.648 20.1864 35.648 20.1864C35.648 20.1864 36.0068 17.276 36.0068 14.3578V11.6297C36.0001 8.71816 35.6412 5.79991 35.6412 5.79991ZM14.2808 17.6687V7.55041L24.0053 12.6275L14.2808 17.6687Z"/>
</symbol>
<symbol id="icon-vector-rigth" viewBox="0 0 32 32">
<path d="M24.444 16l0.314-0.314 0.314 0.314-0.314 0.314-0.314-0.314zM8 16.444c-0.245 0-0.444-0.199-0.444-0.444s0.199-0.444 0.444-0.444v0.889zM19.425 10.352l5.333 5.333-0.629 0.629-5.333-5.333 0.629-0.629zM24.759 16.314l-5.333 5.333-0.629-0.629 5.333-5.333 0.629 0.629zM24.444 16.444h-16.444v-0.889h16.444v0.889z"></path>
</symbol>
<symbol id="icon-project-vector" viewBox="0 0 160 32">
<path d="M157.714 16l0.805-0.811 0.817 0.811-0.817 0.811-0.805-0.811zM2.286 17.143c-0.631 0-1.143-0.512-1.143-1.143s0.512-1.143 1.143-1.143v2.286zM144.704 1.475l13.816 13.714-1.61 1.622-13.816-13.714 1.61-1.622zM158.519 16.811l-13.816 13.714-1.61-1.622 13.816-13.714 1.61 1.622zM157.714 17.143h-77.714v-2.286h77.714v2.286zM80 17.143h-38.857v-2.286h38.857v2.286zM41.143 17.143h-38.857v-2.286h38.857v2.286z"></path>
</symbol>
<symbol id="icon-news" viewBox="0 0 103 32">
<path fill="none" style="fill: var(--color1, #caced1)" d="M100.571 16l0.804-0.812 0.819 0.812-0.819 0.812-0.804-0.812zM2.286 17.143c-0.631 0-1.143-0.512-1.143-1.143s0.512-1.143 1.143-1.143v2.286zM87.533 1.474l13.843 13.714-1.609 1.624-13.843-13.714 1.609-1.624zM101.376 16.812l-13.843 13.714-1.609-1.624 13.843-13.714 1.609 1.624zM100.571 17.143h-98.286v-2.286h98.286v2.286z"></path>
</symbol>
<symbol id="icon-arrow" viewBox="0 0 20 20">
<path d="M16.172 9l-6.071-6.071 1.414-1.414 8.485 8.485-8.485 8.485-1.414-1.414 6.071-6.071h-16.172v-2z"></path>
</symbol>

<symbol id="icon-facebook" viewBox="0 0 32 32">
<path  fill="none" style="stroke: var(--color1, #d6d8da)"  d="M18.667 12.4v3.867h3.467c0.267 0 0.4 0.267 0.4 0.533l-0.533 2.533c0 0.133-0.267 0.267-0.4 0.267h-2.933v9.733h-4v-9.6h-2.267c-0.267 0-0.4-0.133-0.4-0.4v-2.533c0-0.267 0.133-0.4 0.4-0.4h2.267v-4.4c0-2.267 1.733-4 4-4h3.6c0.267 0 0.4 0.133 0.4 0.4v3.2c0 0.267-0.133 0.4-0.4 0.4h-3.2c-0.267 0-0.4 0.133-0.4 0.4z"></path>
<path  fill="none" style="stroke: var(--color1, #d6d8da)" stroke-linejoin="round" stroke-linecap="round" stroke-miterlimit="4" stroke-width="1.7778" d="M20 29.333h-8c-6.667 0-9.333-2.667-9.333-9.333v-8c0-6.667 2.667-9.333 9.333-9.333h8c6.667 0 9.333 2.667 9.333 9.333v8c0 6.667-2.667 9.333-9.333 9.333z"></path>
</symbol>

<symbol id="icon-instagram"  viewBox="0 0 24 24"  xmlns="http://www.w3.org/2000/svg">
  <path d="M7.8 2H16.2C19.4 2 22 4.6 22 7.8V16.2C22 17.7383 21.3889 19.2135 20.3012 20.3012C19.2135 21.3889 17.7383 22 16.2 22H7.8C4.6 22 2 19.4 2 16.2V7.8C2 6.26174 2.61107 4.78649 3.69878 3.69878C4.78649 2.61107 6.26174 2 7.8 2ZM7.6 4C6.64522 4 5.72955 4.37928 5.05442 5.05442C4.37928 5.72955 4 6.64522 4 7.6V16.4C4 18.39 5.61 20 7.6 20H16.4C17.3548 20 18.2705 19.6207 18.9456 18.9456C19.6207 18.2705 20 17.3548 20 16.4V7.6C20 5.61 18.39 4 16.4 4H7.6ZM17.25 5.5C17.5815 5.5 17.8995 5.6317 18.1339 5.86612C18.3683 6.10054 18.5 6.41848 18.5 6.75C18.5 7.08152 18.3683 7.39946 18.1339 7.63388C17.8995 7.8683 17.5815 8 17.25 8C16.9185 8 16.6005 7.8683 16.3661 7.63388C16.1317 7.39946 16 7.08152 16 6.75C16 6.41848 16.1317 6.10054 16.3661 5.86612C16.6005 5.6317 16.9185 5.5 17.25 5.5ZM12 7C13.3261 7 14.5979 7.52678 15.5355 8.46447C16.4732 9.40215 17 10.6739 17 12C17 13.3261 16.4732 14.5979 15.5355 15.5355C14.5979 16.4732 13.3261 17 12 17C10.6739 17 9.40215 16.4732 8.46447 15.5355C7.52678 14.5979 7 13.3261 7 12C7 10.6739 7.52678 9.40215 8.46447 8.46447C9.40215 7.52678 10.6739 7 12 7ZM12 9C11.2044 9 10.4413 9.31607 9.87868 9.87868C9.31607 10.4413 9 11.2044 9 12C9 12.7956 9.31607 13.5587 9.87868 14.1213C10.4413 14.6839 11.2044 15 12 15C12.7956 15 13.5587 14.6839 14.1213 14.1213C14.6839 13.5587 15 12.7956 15 12C15 11.2044 14.6839 10.4413 14.1213 9.87868C13.5587 9.31607 12.7956 9 12 9Z" />
</symbol>
<symbol width="16" height="9" id="icon-vector-down" viewBox="0 0 57 32">
<path fill="none" stroke="#d6d8da" style="stroke: var(--color1, #d6d8da)" stroke-linejoin="round" stroke-linecap="round" stroke-miterlimit="4" stroke-width="3.5556" d="M1.778 3.556l26.667 26.667 26.667-26.667"></path>
</symbol>
<symbol id="icon-message" viewBox="0 0 32 32">
<path fill="none"  stroke-linejoin="miter" stroke-linecap="butt" stroke-miterlimit="4" stroke-width="1.3333" d="M8 8h16c1.473 0 2.667 1.194 2.667 2.667v10.667c0 1.473-1.194 2.667-2.667 2.667h-16c-1.473 0-2.667-1.194-2.667-2.667v-10.667c0-1.473 1.194-2.667 2.667-2.667z"></path>
<path fill="none"  stroke-linejoin="miter" stroke-linecap="butt" stroke-miterlimit="4" stroke-width="1.3333" d="M5.333 12l9.474 4.737c0.751 0.375 1.634 0.375 2.385 0l9.474-4.737"></path>
</symbol>
<symbol id="icon-telephone" viewBox="0 0 32 32">
<path fill="none"  stroke-linejoin="miter" stroke-linecap="butt" stroke-miterlimit="4" stroke-width="1.4667" d="M23.609 18.276l3.531 3.531c0.475 0.475 0.475 1.245 0 1.719-2.567 2.567-6.631 2.856-9.535 0.678l-2.101-1.575c-2.325-1.743-4.39-3.809-6.133-6.133l-1.575-2.101c-2.178-2.904-1.889-6.968 0.678-9.535 0.475-0.475 1.245-0.475 1.719 0l3.531 3.531c0.521 0.521 0.521 1.365 0 1.886l-1.362 1.362c-0.216 0.216-0.27 0.547-0.133 0.821 1.582 3.165 4.148 5.73 7.313 7.312 0.274 0.137 0.604 0.083 0.821-0.133l1.362-1.362c0.521-0.521 1.365-0.521 1.886 0z"></path>
</symbol>
</defs>
</svg>
