<svg aria-hidden="true" style="position: absolute; width: 0; height: 0; overflow: hidden;" version="1.1" xmlns="http://www.w3.org/2000/svg" xmlns:xlink="http://www.w3.org/1999/xlink">
<defs>
<symbol id="icon-facebook" viewBox="0 0 32 32">
<path fill="none" stroke="#d6d8da" style="stroke: var(--color1, #d6d8da)" stroke-linejoin="miter" stroke-linecap="round" stroke-miterlimit="10" stroke-width="1.7778" d="M18.667 12.4v3.867h3.467c0.267 0 0.4 0.267 0.4 0.533l-0.533 2.533c0 0.133-0.267 0.267-0.4 0.267h-2.933v9.733h-4v-9.6h-2.267c-0.267 0-0.4-0.133-0.4-0.4v-2.533c0-0.267 0.133-0.4 0.4-0.4h2.267v-4.4c0-2.267 1.733-4 4-4h3.6c0.267 0 0.4 0.133 0.4 0.4v3.2c0 0.267-0.133 0.4-0.4 0.4h-3.2c-0.267 0-0.4 0.133-0.4 0.4z"></path>
<path fill="none" stroke="#d6d8da" style="stroke: var(--color1, #d6d8da)" stroke-linejoin="round" stroke-linecap="round" stroke-miterlimit="4" stroke-width="1.7778" d="M20 29.333h-8c-6.667 0-9.333-2.667-9.333-9.333v-8c0-6.667 2.667-9.333 9.333-9.333h8c6.667 0 9.333 2.667 9.333 9.333v8c0 6.667-2.667 9.333-9.333 9.333z"></path>
</symbol>
<symbol id="icon-youtobe" viewBox="0 0 44 32">
<path fill="#d6d8da" style="fill: var(--color1, #d6d8da)" d="M43.866 7.138c0 0-0.433-3.054-1.765-4.396-1.688-1.765-3.574-1.774-4.439-1.878-6.196-0.45-15.499-0.45-15.499-0.45h-0.017c0 0-9.303 0-15.499 0.45-0.865 0.104-2.751 0.112-4.439 1.878-1.333 1.342-1.757 4.396-1.757 4.396s-0.442 3.583-0.442 7.174v3.358c0 3.582 0.442 7.174 0.442 7.174s0.433 3.054 1.757 4.396c1.688 1.765 3.903 1.704 4.889 1.895 3.549 0.338 15.066 0.442 15.066 0.442s9.312-0.017 15.508-0.458c0.865-0.104 2.753-0.112 4.439-1.878 1.332-1.342 1.765-4.396 1.765-4.396s0.442-3.582 0.442-7.174v-3.358c-0.008-3.583-0.45-7.175-0.45-7.175zM17.576 21.746v-12.453l11.969 6.249-11.969 6.205z"></path>
</symbol>
<symbol id="icon-instagram" viewBox="0 0 32 32">
<path fill="#d6d8da" style="fill: var(--color1, #d6d8da)" d="M10.4 2.667h11.2c4.267 0 7.733 3.467 7.733 7.733v11.2c0 2.051-0.815 4.018-2.265 5.468s-3.417 2.265-5.468 2.265h-11.2c-4.267 0-7.733-3.467-7.733-7.733v-11.2c0-2.051 0.815-4.018 2.265-5.468s3.417-2.265 5.468-2.265zM10.133 5.333c-1.273 0-2.494 0.506-3.394 1.406s-1.406 2.121-1.406 3.394v11.733c0 2.653 2.147 4.8 4.8 4.8h11.733c1.273 0 2.494-0.506 3.394-1.406s1.406-2.121 1.406-3.394v-11.733c0-2.653-2.147-4.8-4.8-4.8h-11.733zM23 7.333c0.442 0 0.866 0.176 1.178 0.488s0.488 0.736 0.488 1.178-0.176 0.866-0.488 1.178c-0.313 0.313-0.736 0.488-1.178 0.488s-0.866-0.176-1.178-0.488c-0.313-0.313-0.488-0.736-0.488-1.178s0.176-0.866 0.488-1.178c0.313-0.313 0.736-0.488 1.178-0.488zM16 9.333c1.768 0 3.464 0.702 4.714 1.953s1.953 2.946 1.953 4.714c0 1.768-0.702 3.464-1.953 4.714s-2.946 1.953-4.714 1.953c-1.768 0-3.464-0.702-4.714-1.953s-1.953-2.946-1.953-4.714c0-1.768 0.702-3.464 1.953-4.714s2.946-1.953 4.714-1.953zM16 12c-1.061 0-2.078 0.421-2.828 1.172s-1.172 1.768-1.172 2.828c0 1.061 0.421 2.078 1.172 2.828s1.768 1.172 2.828 1.172c1.061 0 2.078-0.421 2.828-1.172s1.172-1.768 1.172-2.828c0-1.061-0.421-2.078-1.172-2.828s-1.768-1.172-2.828-1.172z"></path>
</symbol>
<symbol id="icon-vector-rigth" viewBox="0 0 32 32">
<path stroke-linejoin="miter" stroke-linecap="butt" stroke-miterlimit="4" stroke-width="0.8889" d="M31.556 16c0 8.591-6.964 15.556-15.556 15.556s-15.556-6.964-15.556-15.556c0-8.591 6.964-15.556 15.556-15.556s15.556 6.964 15.556 15.556z"></path>
<path d="M24.444 16l0.314-0.314 0.314 0.314-0.314 0.314-0.314-0.314zM8 16.444c-0.245 0-0.444-0.199-0.444-0.444s0.199-0.444 0.444-0.444v0.889zM19.425 10.352l5.333 5.333-0.629 0.629-5.333-5.333 0.629-0.629zM24.759 16.314l-5.333 5.333-0.629-0.629 5.333-5.333 0.629 0.629zM24.444 16.444h-16.444v-0.889h16.444v0.889z"></path>
</symbol> 
<symbol id="icon-news" viewBox="0 0 103 32">
<path fill="#caced1" style="fill: var(--color1, #caced1)" d="M100.571 16l0.804-0.812 0.819 0.812-0.819 0.812-0.804-0.812zM2.286 17.143c-0.631 0-1.143-0.512-1.143-1.143s0.512-1.143 1.143-1.143v2.286zM87.533 1.474l13.843 13.714-1.609 1.624-13.843-13.714 1.609-1.624zM101.376 16.812l-13.843 13.714-1.609-1.624 13.843-13.714 1.609 1.624zM100.571 17.143h-98.286v-2.286h98.286v2.286z"></path>
</symbol>
<symbol id="icon-arrow" viewBox="0 0 20 20">
<path d="M16.172 9l-6.071-6.071 1.414-1.414 8.485 8.485-8.485 8.485-1.414-1.414 6.071-6.071h-16.172v-2z"></path>
</symbol>
</defs>
</svg>
