<svg width="519" height="456" viewBox="0 0 519 456" fill=" #caced1" xmlns="http://www.w3.org/2000/svg">
<mask id="path-1-inside-1_147_1326" fill="white">
<path d="M133.864 28.6948C65.5121 44.8192 8.62002 58.36 7.40307 58.9836C6.18613 59.6072 4.15789 61.3889 2.83953 62.9034L0.50706 65.8432L0.202824 191.275L0 316.796L2.12965 320.181C4.66495 324.101 10.5468 327.308 15.1104 327.308C20.2824 327.308 26.0629 324.19 28.3953 320.181C30.2208 317.152 30.4236 314.925 30.4236 302.631V288.556L36.6097 298.355C44.2156 310.381 44.1142 310.292 49.489 312.341C52.7342 313.589 54.9653 313.945 57.9062 313.499C65.7149 312.341 71.7997 304.502 70.0757 297.731C69.5686 296.128 60.5429 281.073 49.8947 264.235L30.4236 233.768V160.63C30.4236 91.4106 30.525 87.5799 32.249 88.0254C33.1617 88.2926 49.2862 92.1233 67.8446 96.5775C86.5044 101.032 102.02 104.773 102.223 104.952C102.426 105.13 99.6879 108.426 96.1385 112.256C80.4197 129.361 70.2785 148.158 64.7008 170.251C62.8754 177.645 62.4698 181.832 62.4698 197.244C62.4698 212.833 62.774 216.842 64.7008 224.593C71.2926 251.496 84.3747 273.678 105.266 293.455C125.447 312.609 129.807 322.497 129.807 349.133C129.807 365.703 130.821 371.048 135.486 379.155C139.239 385.658 147.149 392.607 154.755 396.081L161.245 399.021V408.464C161.245 413.72 161.752 420.045 162.259 422.718C165.809 439.198 180.818 452.027 199.782 454.61C208.097 455.857 303.222 455.857 312.349 454.699C321.172 453.63 332.124 448.73 337.905 443.385C347.843 433.942 350.885 426.192 350.885 409.622V398.843L355.55 397.239C361.432 395.279 372.892 385.926 376.543 380.046C380.396 373.81 382.323 366.327 382.323 357.507V349.757L385.771 347.53C390.639 344.234 398.245 335.058 402.2 327.753C406.865 319.112 408.893 310.114 408.487 299.424L408.183 290.694L414.876 288.199C433.536 281.251 447.227 268.244 453.92 251.14C457.571 241.697 458.382 228.067 455.948 218.446C452.703 205.618 443.272 191.988 432.522 184.772C429.48 182.723 426.944 180.674 426.944 180.317C426.944 179.961 428.06 177.467 429.48 174.883C433.435 167.133 435.057 160.184 435.057 150.385C435.057 134.795 429.175 120.541 418.629 110.297C414.471 106.377 413.964 105.575 415.485 105.13C416.499 104.952 437.998 99.7845 463.351 93.8159C490.53 87.3127 510.609 82.1458 512.536 80.9876C521.562 75.7316 521.055 63.8833 511.522 58.9836C508.885 57.6474 268.539 0.989349 261.136 0.00939941C259.108 -0.346954 215.805 9.45239 133.864 28.6948ZM352.305 48.6498C416.093 63.527 443.88 70.3865 442.562 70.921C441.548 71.2774 399.969 81.2549 350.277 93.0141L259.817 114.484L169.257 93.0141C119.362 81.2549 77.783 71.2774 76.7688 70.921C75.4505 70.4756 106.178 62.9034 166.518 48.7389C216.819 36.8906 258.499 27.1803 259.108 27.1803C259.615 27.0912 301.599 36.8015 352.305 48.6498ZM176.862 122.501C197.55 127.401 220.47 132.835 227.67 134.528C234.971 136.22 241.665 137.913 242.679 138.091C244.301 138.537 244.403 141.922 244.403 193.324V248.022L235.073 247.933C229.901 247.844 223.106 247.577 220.064 247.309L214.486 246.686L213.979 215.506L213.472 184.326L210.734 179.159C206.982 172.211 198.869 164.906 191.06 161.52C169.459 152.167 142.078 162.589 134.878 182.901C129.706 197.422 135.182 221.207 147.554 237.777C153.335 245.617 167.634 257.821 176.254 262.276L183.556 266.017V320.27V374.523H178.688C172.299 374.523 165.504 371.494 162.766 367.396C160.941 364.634 160.637 362.14 160.129 345.57C159.318 323.833 157.696 316.706 150.698 303.611C145.019 293.01 142.484 289.892 129.402 277.153C116.725 264.592 111.249 257.643 104.454 245.171C95.5301 228.869 91.575 210.695 92.5891 191.988C93.806 169.36 101.716 150.029 117.232 131.944C123.621 124.461 135.993 113.504 138.123 113.504C138.732 113.504 156.174 117.512 176.862 122.501ZM386.481 120.541C400.07 130.163 404.634 137.735 404.634 150.563C404.634 165.707 393.681 178.625 376.847 183.168C368.125 185.484 359.1 185.039 349.871 181.743C346.322 180.496 341.555 179.427 339.223 179.427C330.704 179.427 324.011 186.019 324.822 193.591C325.735 200.718 330.603 204.459 344.496 208.468C352.305 210.695 354.942 211.052 365.59 211.052C379.483 211.052 388.306 209.181 399.157 203.925L405.344 200.896L409.806 203.39C415.688 206.597 420.555 211.586 423.801 217.733C426.133 222.009 426.437 223.791 426.437 231.541C426.437 239.381 426.133 241.073 423.699 245.617C418.426 255.505 410.516 261.83 399.867 264.592L395.202 265.839L390.233 261.028C379.179 250.071 361.635 242.766 344.801 242.053C335.876 241.608 334.862 241.786 331.617 243.746C322.389 249.18 322.49 259.959 331.718 266.017C333.24 267.086 337.296 267.977 342.468 268.512C353.623 269.581 360.418 272.52 367.415 279.202C375.123 286.418 377.658 292.386 377.759 302.809C377.759 310.114 377.455 311.361 374.514 316.706C371.371 322.319 366.706 326.684 357.883 332.564C352.914 335.949 351.899 339.156 351.899 351.806C351.899 364.723 350.885 367.752 345.206 371.494L341.454 374.077L308.089 374.344L274.826 374.612V256.485C274.826 191.542 275.029 138.447 275.232 138.447C275.638 138.447 349.871 120.809 367.111 116.622C371.878 115.464 376.238 114.484 376.745 114.484C377.354 114.395 381.715 117.156 386.481 120.541ZM180.615 187.355L183.556 189.939V212.032V234.036L181.02 231.987C176.254 228.067 169.358 218.178 166.721 211.586C163.577 203.658 162.462 193.947 164.287 190.117C166.924 184.415 175.645 182.99 180.615 187.355ZM237 274.747H244.403V324.635V374.523H229.191H213.979V324.101V273.589L221.788 274.213C226.047 274.48 232.842 274.747 237 274.747ZM320.462 409.978C320.462 420.045 318.839 423.698 313.262 426.637C309.915 428.33 307.988 428.419 255.862 428.419C203.027 428.419 201.911 428.419 199.173 426.548C193.19 422.629 192.176 420.58 191.871 410.513L191.466 401.248H255.964H320.462V409.978Z"/>
</mask>
<path d="M133.864 28.6948C65.5121 44.8192 8.62002 58.36 7.40307 58.9836C6.18613 59.6072 4.15789 61.3889 2.83953 62.9034L0.50706 65.8432L0.202824 191.275L0 316.796L2.12965 320.181C4.66495 324.101 10.5468 327.308 15.1104 327.308C20.2824 327.308 26.0629 324.19 28.3953 320.181C30.2208 317.152 30.4236 314.925 30.4236 302.631V288.556L36.6097 298.355C44.2156 310.381 44.1142 310.292 49.489 312.341C52.7342 313.589 54.9653 313.945 57.9062 313.499C65.7149 312.341 71.7997 304.502 70.0757 297.731C69.5686 296.128 60.5429 281.073 49.8947 264.235L30.4236 233.768V160.63C30.4236 91.4106 30.525 87.5799 32.249 88.0254C33.1617 88.2926 49.2862 92.1233 67.8446 96.5775C86.5044 101.032 102.02 104.773 102.223 104.952C102.426 105.13 99.6879 108.426 96.1385 112.256C80.4197 129.361 70.2785 148.158 64.7008 170.251C62.8754 177.645 62.4698 181.832 62.4698 197.244C62.4698 212.833 62.774 216.842 64.7008 224.593C71.2926 251.496 84.3747 273.678 105.266 293.455C125.447 312.609 129.807 322.497 129.807 349.133C129.807 365.703 130.821 371.048 135.486 379.155C139.239 385.658 147.149 392.607 154.755 396.081L161.245 399.021V408.464C161.245 413.72 161.752 420.045 162.259 422.718C165.809 439.198 180.818 452.027 199.782 454.61C208.097 455.857 303.222 455.857 312.349 454.699C321.172 453.63 332.124 448.73 337.905 443.385C347.843 433.942 350.885 426.192 350.885 409.622V398.843L355.55 397.239C361.432 395.279 372.892 385.926 376.543 380.046C380.396 373.81 382.323 366.327 382.323 357.507V349.757L385.771 347.53C390.639 344.234 398.245 335.058 402.2 327.753C406.865 319.112 408.893 310.114 408.487 299.424L408.183 290.694L414.876 288.199C433.536 281.251 447.227 268.244 453.92 251.14C457.571 241.697 458.382 228.067 455.948 218.446C452.703 205.618 443.272 191.988 432.522 184.772C429.48 182.723 426.944 180.674 426.944 180.317C426.944 179.961 428.06 177.467 429.48 174.883C433.435 167.133 435.057 160.184 435.057 150.385C435.057 134.795 429.175 120.541 418.629 110.297C414.471 106.377 413.964 105.575 415.485 105.13C416.499 104.952 437.998 99.7845 463.351 93.8159C490.53 87.3127 510.609 82.1458 512.536 80.9876C521.562 75.7316 521.055 63.8833 511.522 58.9836C508.885 57.6474 268.539 0.989349 261.136 0.00939941C259.108 -0.346954 215.805 9.45239 133.864 28.6948ZM352.305 48.6498C416.093 63.527 443.88 70.3865 442.562 70.921C441.548 71.2774 399.969 81.2549 350.277 93.0141L259.817 114.484L169.257 93.0141C119.362 81.2549 77.783 71.2774 76.7688 70.921C75.4505 70.4756 106.178 62.9034 166.518 48.7389C216.819 36.8906 258.499 27.1803 259.108 27.1803C259.615 27.0912 301.599 36.8015 352.305 48.6498ZM176.862 122.501C197.55 127.401 220.47 132.835 227.67 134.528C234.971 136.22 241.665 137.913 242.679 138.091C244.301 138.537 244.403 141.922 244.403 193.324V248.022L235.073 247.933C229.901 247.844 223.106 247.577 220.064 247.309L214.486 246.686L213.979 215.506L213.472 184.326L210.734 179.159C206.982 172.211 198.869 164.906 191.06 161.52C169.459 152.167 142.078 162.589 134.878 182.901C129.706 197.422 135.182 221.207 147.554 237.777C153.335 245.617 167.634 257.821 176.254 262.276L183.556 266.017V320.27V374.523H178.688C172.299 374.523 165.504 371.494 162.766 367.396C160.941 364.634 160.637 362.14 160.129 345.57C159.318 323.833 157.696 316.706 150.698 303.611C145.019 293.01 142.484 289.892 129.402 277.153C116.725 264.592 111.249 257.643 104.454 245.171C95.5301 228.869 91.575 210.695 92.5891 191.988C93.806 169.36 101.716 150.029 117.232 131.944C123.621 124.461 135.993 113.504 138.123 113.504C138.732 113.504 156.174 117.512 176.862 122.501ZM386.481 120.541C400.07 130.163 404.634 137.735 404.634 150.563C404.634 165.707 393.681 178.625 376.847 183.168C368.125 185.484 359.1 185.039 349.871 181.743C346.322 180.496 341.555 179.427 339.223 179.427C330.704 179.427 324.011 186.019 324.822 193.591C325.735 200.718 330.603 204.459 344.496 208.468C352.305 210.695 354.942 211.052 365.59 211.052C379.483 211.052 388.306 209.181 399.157 203.925L405.344 200.896L409.806 203.39C415.688 206.597 420.555 211.586 423.801 217.733C426.133 222.009 426.437 223.791 426.437 231.541C426.437 239.381 426.133 241.073 423.699 245.617C418.426 255.505 410.516 261.83 399.867 264.592L395.202 265.839L390.233 261.028C379.179 250.071 361.635 242.766 344.801 242.053C335.876 241.608 334.862 241.786 331.617 243.746C322.389 249.18 322.49 259.959 331.718 266.017C333.24 267.086 337.296 267.977 342.468 268.512C353.623 269.581 360.418 272.52 367.415 279.202C375.123 286.418 377.658 292.386 377.759 302.809C377.759 310.114 377.455 311.361 374.514 316.706C371.371 322.319 366.706 326.684 357.883 332.564C352.914 335.949 351.899 339.156 351.899 351.806C351.899 364.723 350.885 367.752 345.206 371.494L341.454 374.077L308.089 374.344L274.826 374.612V256.485C274.826 191.542 275.029 138.447 275.232 138.447C275.638 138.447 349.871 120.809 367.111 116.622C371.878 115.464 376.238 114.484 376.745 114.484C377.354 114.395 381.715 117.156 386.481 120.541ZM180.615 187.355L183.556 189.939V212.032V234.036L181.02 231.987C176.254 228.067 169.358 218.178 166.721 211.586C163.577 203.658 162.462 193.947 164.287 190.117C166.924 184.415 175.645 182.99 180.615 187.355ZM237 274.747H244.403V324.635V374.523H229.191H213.979V324.101V273.589L221.788 274.213C226.047 274.48 232.842 274.747 237 274.747ZM320.462 409.978C320.462 420.045 318.839 423.698 313.262 426.637C309.915 428.33 307.988 428.419 255.862 428.419C203.027 428.419 201.911 428.419 199.173 426.548C193.19 422.629 192.176 420.58 191.871 410.513L191.466 401.248H255.964H320.462V409.978Z" fill="#CACED1" stroke="white" stroke-width="12" mask="url(#path-1-inside-1_147_1326)"/>
</svg>
